<?xml version="1.0" encoding="UTF-8"?>
<svg width="152.19mm" height="114.01mm" version="1.1" viewBox="0 0 152.19 114.01" xmlns="http://www.w3.org/2000/svg">
 <g transform="translate(-26.748 -45.924)">
  <path d="m45.429 49.727s22.34-3.9538 58.788-3.7984c36.46 0.15551 54.367 1.8358 61.591 3.8686s13.126 12.049 13.126 24.585v59.436c0 12.536-7.6039 18.044-23.512 22.628 0 0-10.287 3.4882-50.084 3.4882-48.034 0-55.079-3.4882-55.079-3.4882-14.472-3.5466-23.512-10.092-23.512-22.628v-59.436c0-12.536 5.5966-20.926 18.682-24.656z" fill="#a02c2c" stroke-width="7.9205"/>
  <g fill="none" stroke="#f2f2f2">
   <circle cx="102.84" cy="74.155" r="7.9805" stroke-width="2"/>
   <circle transform="rotate(-18.922)" cx="107.5" cy="153.77" r="7.6058" stroke-width="1.5042"/>
   <circle transform="rotate(19.083)" cx="87.725" cy="88.029" r="8.1088" stroke-width="1.6037"/>
   <path d="m104.55 89.767c-6.3151 4e-3 -12.234 2.7459-14.834 7.8284-0.88881 1.9977-1.0889 2.1534-1.4501 4.8965-0.09222 4.1117 1.7979 8.0738 1.4429 12.19-0.29831 3.459-2.3006 8.9121-2.318 10.049-0.04066 2.6534 34.105 2.364 34.043 0.0164-0.23894-1.5775-2.1217-7.1574-2.3155-10.417-0.26365-4.4345 1.497-6.8124 1.5143-10.36-0.18205-2.6413-0.18003-2.6738-1.4283-5.8487-2.6021-5.0854-8.335-8.3537-14.654-8.354z" stroke-width="3.1923"/>
   <g>
    <g stroke-width="3">
     <path d="m59.364 105.25 36.181-27.099"/>
     <path d="m146.91 104.44-36.105-27.2"/>
     <path d="m114.69 127.11a9.746 7.9815 0 0 1-9.5534 7.98 9.746 7.9815 0 0 1-9.931-7.6646l9.7384-0.31534z"/>
    </g>
    <path transform="matrix(-.65614 -.75464 -.75464 .65614 0 0)" d="m-163.47-30.442a12.497 12.497 0 0 1-4.6574 9.7324 12.497 12.497 0 0 1-10.501 2.4785" stroke-width="2"/>
    <path transform="rotate(-48.994)" d="m-26.636 126.8a12.497 12.497 0 0 1-4.6574 9.7324 12.497 12.497 0 0 1-10.501 2.4784" stroke-width="2"/>
   </g>
  </g>
 </g>
</svg>
