<?xml version="1.0" encoding="UTF-8" standalone="no"?>
<svg
   xmlns:dc="http://purl.org/dc/elements/1.1/"
   xmlns:cc="http://creativecommons.org/ns#"
   xmlns:rdf="http://www.w3.org/1999/02/22-rdf-syntax-ns#"
   xmlns:svg="http://www.w3.org/2000/svg"
   xmlns="http://www.w3.org/2000/svg"
   xml:space="preserve"
   viewBox="0 0 461.001 461.001"
   id="Layer_1"
   version="1.1"
   width="800px"
   height="800px"><metadata
   id="metadata824"><rdf:RDF><cc:Work
       rdf:about=""><dc:format>image/svg+xml</dc:format><dc:type
         rdf:resource="http://purl.org/dc/dcmitype/StillImage" /><dc:title></dc:title></cc:Work></rdf:RDF></metadata><defs
   id="defs822" />
<g
   id="g817">
	<path
   id="path815"
   d="M 365.257,67.393 H 95.744 C 42.866,67.393 0,110.259 0,163.137 v 134.728 c 0,52.878 42.866,95.744 95.744,95.744 h 269.513 c 52.878,0 95.744,-42.866 95.744,-95.744 V 163.137 c 0,-52.878 -42.866,-95.744 -95.744,-95.744 z"
   style="fill:#f61c0d" />
</g>
<g
   transform="matrix(0.67097695,0,0,0.67097695,144.61385,144.62185)"
   id="g892"
   style="fill:#ffffff"><g
     style="stroke-width:0"
     id="SVGRepo_bgCarrier" /><g
     style="stroke-linecap:round;stroke-linejoin:round"
     id="SVGRepo_tracerCarrier" /><g
     id="SVGRepo_iconCarrier"><path
       d="m 34.64355,74.10547 a 8.00344,8.00344 0 0 1 -7.17089,-11.53711 112.28357,112.28357 0 0 1 40.82422,-45.34473 7.99959,7.99959 0 1 1 8.54,13.5293 96.29849,96.29849 0 0 0 -35.01071,38.88574 8.002,8.002 0 0 1 -7.18262,4.4668 z M 228.52734,62.56836 a 112.28362,112.28362 0 0 0 -40.82421,-45.34473 7.9996,7.9996 0 1 0 -8.54,13.5293 96.29849,96.29849 0 0 1 35.01074,38.88574 8.0002,8.0002 0 1 0 14.35351,-7.07031 z m -7.71289,113.37109 A 15.99808,15.99808 0 0 1 207.0166,200 H 168 a 40,40 0 0 1 -80,0 H 48.9834 A 15.99886,15.99886 0 0 1 35.18652,175.93555 C 41.124,165.7207 48.20313,146.33594 48.20313,112 a 79.89888,79.89888 0 0 1 79.79492,-80 c 0.2041,0 0.40625,10e-4 0.61035,0.002 A 79.70738,79.70738 0 0 1 207.80469,112 c 0,34.33789 7.07519,53.72363 13.00976,63.93945 z M 152,200 h -48 a 24,24 0 0 0 48,0 z"
       id="path878" /></g></g></svg>