<?xml version="1.0" encoding="UTF-8" standalone="no"?>
<!-- Created with Inkscape (http://www.inkscape.org/) -->

<svg
   width="210mm"
   height="297mm"
   viewBox="0 0 210 297"
   version="1.1"
   id="svg5"
   inkscape:version="1.1.2 (0a00cf5339, 2022-02-04)"
   sodipodi:docname="new_logo.svg"
   xmlns:inkscape="http://www.inkscape.org/namespaces/inkscape"
   xmlns:sodipodi="http://sodipodi.sourceforge.net/DTD/sodipodi-0.dtd"
   xmlns="http://www.w3.org/2000/svg"
   xmlns:svg="http://www.w3.org/2000/svg">
  <sodipodi:namedview
     id="namedview7"
     pagecolor="#ffffff"
     bordercolor="#666666"
     borderopacity="1.0"
     inkscape:pageshadow="2"
     inkscape:pageopacity="0.0"
     inkscape:pagecheckerboard="0"
     inkscape:document-units="mm"
     showgrid="false"
     showguides="true"
     inkscape:zoom="0.47334229"
     inkscape:cx="322.177"
     inkscape:cy="285.20587"
     inkscape:window-width="1920"
     inkscape:window-height="1003"
     inkscape:window-x="0"
     inkscape:window-y="0"
     inkscape:window-maximized="1"
     inkscape:current-layer="layer2" />
  <defs
     id="defs2" />
  <g
     inkscape:groupmode="layer"
     id="layer2"
     inkscape:label="Layer 2">
    <path
       id="rect852"
       style="fill:#a02c2c;stroke-width:7.92049"
       d="m 45.429382,49.726774 c 0,0 22.340293,-3.953827 58.787948,-3.798364 36.45959,0.155514 54.36662,1.835849 61.59079,3.868574 7.22417,2.032725 13.1265,12.049329 13.1265,24.585456 v 59.43557 c 0,12.53613 -7.60393,18.04355 -23.51195,22.62838 0,0 -10.28693,3.48823 -50.08414,3.48823 -48.03411,0 -55.078843,-3.48823 -55.078843,-3.48823 -14.471707,-3.54662 -23.51195,-10.09225 -23.51195,-22.62838 V 74.38244 c 0,-12.536127 5.596642,-20.925532 18.681645,-24.655666 z"
       sodipodi:nodetypes="sszssssssss" />
  </g>
  <g
     inkscape:label="Layer 1"
     inkscape:groupmode="layer"
     id="layer1">
    <circle
       style="fill:none;stroke:#f2f2f2;stroke-width:2;stroke-miterlimit:4;stroke-dasharray:none"
       id="path846"
       cx="102.84118"
       cy="74.154541"
       r="7.9805398" />
    <circle
       style="fill:none;stroke:#f2f2f2;stroke-width:1.50424;stroke-miterlimit:4;stroke-dasharray:none"
       id="circle964"
       cx="107.5013"
       cy="153.76529"
       r="7.6058302"
       transform="rotate(-18.921916)" />
    <circle
       style="fill:none;stroke:#f2f2f2;stroke-width:1.60372;stroke-miterlimit:4;stroke-dasharray:none"
       id="circle966"
       cx="87.725128"
       cy="88.02861"
       r="8.1088428"
       transform="rotate(19.08276)" />
    <path
       style="fill:none;stroke:#f2f2f2;stroke-width:3.19226;stroke-miterlimit:4;stroke-dasharray:none"
       d="m 104.55244,89.767007 c -6.315093,0.004 -12.233592,2.745894 -14.834207,7.828364 -0.888808,1.99768 -1.088923,2.1534 -1.450081,4.896469 -0.09222,4.11172 1.797863,8.07379 1.44287,12.19004 -0.298307,3.45896 -2.300564,8.91212 -2.31798,10.04862 -0.04066,2.65344 34.104578,2.36403 34.042578,0.0164 -0.23894,-1.57748 -2.12172,-7.1574 -2.31553,-10.41716 -0.26365,-4.4345 1.497,-6.81244 1.51429,-10.36003 -0.18205,-2.64129 -0.18003,-2.67384 -1.42828,-5.848739 -2.6021,-5.08537 -8.33503,-8.353684 -14.65374,-8.354014 z"
       id="rect1092" />
    <path
       style="fill:none;stroke:#f2f2f2;stroke-width:3;stroke-linecap:butt;stroke-linejoin:miter;stroke-miterlimit:4;stroke-dasharray:none;stroke-opacity:1"
       d="M 59.363948,105.25274 95.544929,78.154231 v 0"
       id="path4581" />
    <path
       style="fill:none;stroke:#f2f2f2;stroke-width:3;stroke-linecap:butt;stroke-linejoin:miter;stroke-miterlimit:4;stroke-dasharray:none;stroke-opacity:1"
       d="M 146.91228,104.43708 110.80751,77.237124 v 0"
       id="path5521" />
    <path
       style="fill:none;stroke:#f2f2f2;stroke-width:3;stroke-linecap:butt;stroke-miterlimit:4;stroke-dasharray:none"
       id="path5545"
       sodipodi:type="arc"
       sodipodi:cx="104.94347"
       sodipodi:cy="127.11137"
       sodipodi:rx="9.7460003"
       sodipodi:ry="7.9815421"
       sodipodi:start="0"
       sodipodi:end="3.1020728"
       sodipodi:arc-type="slice"
       d="m 114.68947,127.11137 a 9.7460003,7.9815421 0 0 1 -9.55344,7.97998 9.7460003,7.9815421 0 0 1 -9.930954,-7.66464 l 9.738394,-0.31534 z" />
    <path
       style="fill:none;stroke:#f2f2f2;stroke-width:2;stroke-linecap:butt;stroke-miterlimit:4;stroke-dasharray:none"
       id="path22630"
       transform="matrix(-0.65613942,-0.75463969,-0.75463969,0.65613942,0,0)"
       sodipodi:type="arc"
       sodipodi:cx="-175.96992"
       sodipodi:cy="-30.442326"
       sodipodi:rx="12.497373"
       sodipodi:ry="12.497373"
       sodipodi:start="0"
       sodipodi:end="1.7853521"
       sodipodi:arc-type="arc"
       d="m -163.47255,-30.442326 a 12.497373,12.497373 0 0 1 -4.65739,9.732371 12.497373,12.497373 0 0 1 -10.50084,2.478451"
       sodipodi:open="true" />
    <path
       style="fill:none;stroke:#f2f2f2;stroke-width:2;stroke-linecap:butt;stroke-miterlimit:4;stroke-dasharray:none"
       id="path22734"
       transform="rotate(-48.993897)"
       sodipodi:type="arc"
       sodipodi:cx="-39.132893"
       sodipodi:cy="126.79928"
       sodipodi:rx="12.497373"
       sodipodi:ry="12.497373"
       sodipodi:start="0"
       sodipodi:end="1.7853521"
       sodipodi:arc-type="arc"
       d="m -26.63552,126.79928 a 12.497373,12.497373 0 0 1 -4.657392,9.73237 12.497373,12.497373 0 0 1 -10.500839,2.47845"
       sodipodi:open="true" />
  </g>
</svg>
